<svg xmlns="http://www.w3.org/2000/svg" viewBox="0 0 747 813">
  <rect width="747" height="813" fill="#000000"/>
  <g>
    <path d="M547.836 643.473C548.18 641.606 547.98 639.678 547.26 637.922C546.54 636.166 545.33 634.657 543.776 633.575C542.222 632.493 540.391 631.885 538.501 631.823C536.611 631.762 534.744 632.25 533.124 633.229C496.487 655.925 429.711 713.024 375.759 688.577C323.216 664.586 311.036 574.523 296.945 533.57C296.31 531.758 295.161 530.173 293.64 529.01C292.119 527.847 290.292 527.156 288.385 527.023C286.478 526.891 284.574 527.322 282.908 528.263C281.242 529.205 279.886 530.616 279.009 532.322C270.913 547.844 264.011 566.917 258.207 581.816C221.403 676.269 253.693 776.289 330.357 805.15C407.022 834.011 498.948 780.799 535.751 686.37C541.194 672.512 545.243 658.141 547.836 643.473Z" fill="#7FFF00"/>
    <path d="M663.301 366.161C661.828 364.977 660.046 364.245 658.169 364.052C656.291 363.858 654.398 364.212 652.715 365.07C651.033 365.928 649.634 367.255 648.685 368.89C647.737 370.526 647.279 372.401 647.366 374.291C650.022 417.46 668.9 503.462 621.814 539.771C575.972 575.194 490.94 543.417 448.305 536.581C446.411 536.289 444.473 536.558 442.73 537.357C440.988 538.156 439.516 539.449 438.498 541.076C437.481 542.704 436.96 544.594 437.002 546.515C437.044 548.435 437.647 550.301 438.735 551.882C448.568 566.272 462.11 581.453 472.47 593.612C538.194 670.669 641.433 689.135 702.994 634.814C764.554 580.494 761.085 473.987 695.361 396.931C685.73 385.624 674.989 375.315 663.301 366.161Z" fill="#7FFF00"/>
    <path d="M485.415 132.791C483.641 133.447 482.093 134.606 480.958 136.128C479.824 137.649 479.152 139.469 479.023 141.367C478.894 143.265 479.314 145.16 480.232 146.823C481.151 148.486 482.528 149.846 484.198 150.738C522.397 170.727 605.408 199.004 612.212 258.178C618.849 315.837 548.014 372.657 520.224 405.835C518.997 407.314 518.227 409.123 518.011 411.037C517.794 412.952 518.141 414.889 519.008 416.607C519.874 418.326 521.223 419.751 522.886 420.706C524.549 421.66 526.454 422.103 528.365 421.98C545.794 420.971 565.609 417.175 581.319 414.484C680.851 397.666 749.728 318.384 735.022 237.42C720.315 156.456 627.73 104.37 528.198 121.139C513.587 123.576 499.254 127.48 485.415 132.791Z" fill="#7FFF00"/>
    <path d="M195.19 167.939C194.818 169.803 194.994 171.736 195.698 173.502C196.402 175.269 197.603 176.794 199.156 177.893C200.709 178.992 202.547 179.619 204.449 179.697C206.351 179.774 208.235 179.3 209.873 178.331C246.975 155.986 314.691 99.5119 368.758 124.497C421.623 148.858 432.773 239.198 446.494 280.312C447.111 282.135 448.25 283.737 449.769 284.92C451.288 286.103 453.122 286.815 455.042 286.969C456.963 287.122 458.886 286.709 460.574 285.782C462.262 284.855 463.641 283.454 464.54 281.752C472.831 266.271 479.943 247.263 485.927 232.406C523.87 138.298 492.343 37.9971 415.495 8.30775C338.648 -21.3816 245.629 31.0368 207.71 125.169C202.108 138.969 197.914 153.298 195.19 167.939Z" fill="#7FFF00"/>
    <path d="M76.8537 440.555C78.2801 441.808 80.0405 442.621 81.9213 442.896C83.8022 443.171 85.7227 442.897 87.45 442.105C89.1773 441.314 90.6371 440.04 91.6524 438.438C92.6677 436.835 93.195 434.974 93.1701 433.079C92.3315 390.087 77.2611 303.649 125.803 269.542C173.194 236.271 256.908 271.501 299.269 280.147C301.15 280.518 303.099 280.332 304.876 279.612C306.653 278.892 308.179 277.67 309.267 276.095C310.355 274.521 310.956 272.663 310.998 270.751C311.039 268.84 310.518 266.958 309.499 265.338C300.275 250.482 287.385 234.91 277.537 222.346C215.075 142.883 112.577 120.073 48.6776 171.496C-15.2221 222.92 -16.3482 329.134 46.1139 408.502C55.2639 420.18 65.5617 430.918 76.8537 440.555Z" fill="#7FFF00"/>
    <path d="M255.497 678.984C257.281 678.346 258.841 677.202 259.99 675.692C261.139 674.181 261.828 672.368 261.972 670.473C262.116 668.578 261.709 666.682 260.802 665.014C259.894 663.346 258.525 661.977 256.859 661.075C218.864 640.792 136.069 611.782 129.812 552.684C123.723 495 195.103 439.043 223.187 406.197C224.426 404.733 225.211 402.938 225.445 401.031C225.679 399.125 225.351 397.192 224.503 395.47C223.654 393.749 222.322 392.315 220.67 391.345C219.019 390.375 217.121 389.912 215.21 390.014C197.777 390.853 177.908 394.497 162.171 396.99C62.4444 412.79 -7.16825 491.26 6.77817 572.248C20.7246 653.235 112.857 706.004 212.583 690.205C227.226 687.913 241.602 684.154 255.497 678.984Z" fill="#7FFF00"/>
  </g>
</svg>
